<mxfile host="Electron" modified="2023-06-26T15:58:00.845Z" agent="Mozilla/5.0 (Windows NT 10.0; Win64; x64) AppleWebKit/537.36 (KHTML, like Gecko) draw.io/21.5.0 Chrome/112.0.5615.204 Electron/24.5.1 Safari/537.36" etag="0exhB2taJhQHx1Zb6CWN" version="21.5.0" type="device">
  <diagram name="Pagina-1" id="jamyq3zcREsdCBHtyakl">
    <mxGraphModel dx="2440" dy="984" grid="1" gridSize="10" guides="1" tooltips="1" connect="1" arrows="1" fold="1" page="1" pageScale="1" pageWidth="827" pageHeight="1169" math="0" shadow="0">
      <root>
        <mxCell id="0" />
        <mxCell id="1" parent="0" />
        <mxCell id="yXNOp4gTqFDvDLP4UkSq-8" value="&lt;&lt;controller&gt;&gt;&#xa;LoginController" style="swimlane;fontStyle=1;align=center;verticalAlign=top;childLayout=stackLayout;horizontal=1;startSize=40;horizontalStack=0;resizeParent=1;resizeParentMax=0;resizeLast=0;collapsible=1;marginBottom=0;" parent="1" vertex="1">
          <mxGeometry x="340" y="300" width="260" height="100" as="geometry" />
        </mxCell>
        <mxCell id="yXNOp4gTqFDvDLP4UkSq-10" value="" style="line;strokeWidth=1;fillColor=none;align=left;verticalAlign=middle;spacingTop=-1;spacingLeft=3;spacingRight=3;rotatable=0;labelPosition=right;points=[];portConstraint=eastwest;strokeColor=inherit;" parent="yXNOp4gTqFDvDLP4UkSq-8" vertex="1">
          <mxGeometry y="40" width="260" height="8" as="geometry" />
        </mxCell>
        <mxCell id="yXNOp4gTqFDvDLP4UkSq-11" value="+checkLogin(loginBean: LoginBean)&#xa;+completeChefLogin(loginBean: LoginBean)&#xa;+completeUserLogin(loginBean: LoginBean)" style="text;strokeColor=none;fillColor=none;align=left;verticalAlign=top;spacingLeft=4;spacingRight=4;overflow=hidden;rotatable=0;points=[[0,0.5],[1,0.5]];portConstraint=eastwest;" parent="yXNOp4gTqFDvDLP4UkSq-8" vertex="1">
          <mxGeometry y="48" width="260" height="52" as="geometry" />
        </mxCell>
        <mxCell id="yXNOp4gTqFDvDLP4UkSq-12" value="&lt;&lt;boundary&gt;&gt;&#xa;LoginBoundary" style="swimlane;fontStyle=1;align=center;verticalAlign=top;childLayout=stackLayout;horizontal=1;startSize=40;horizontalStack=0;resizeParent=1;resizeParentMax=0;resizeLast=0;collapsible=1;marginBottom=0;" parent="1" vertex="1">
          <mxGeometry x="120" y="390" width="160" height="100" as="geometry" />
        </mxCell>
        <mxCell id="yXNOp4gTqFDvDLP4UkSq-14" value="" style="line;strokeWidth=1;fillColor=none;align=left;verticalAlign=middle;spacingTop=-1;spacingLeft=3;spacingRight=3;rotatable=0;labelPosition=right;points=[];portConstraint=eastwest;strokeColor=inherit;" parent="yXNOp4gTqFDvDLP4UkSq-12" vertex="1">
          <mxGeometry y="40" width="160" height="8" as="geometry" />
        </mxCell>
        <mxCell id="yXNOp4gTqFDvDLP4UkSq-15" value="+displayLogin()&#xa;+confirm()&#xa;+login()" style="text;strokeColor=none;fillColor=none;align=left;verticalAlign=top;spacingLeft=4;spacingRight=4;overflow=hidden;rotatable=0;points=[[0,0.5],[1,0.5]];portConstraint=eastwest;" parent="yXNOp4gTqFDvDLP4UkSq-12" vertex="1">
          <mxGeometry y="48" width="160" height="52" as="geometry" />
        </mxCell>
        <mxCell id="yXNOp4gTqFDvDLP4UkSq-16" value="&lt;b&gt;Use Case: Login&lt;/b&gt;" style="text;html=1;strokeColor=none;fillColor=none;align=center;verticalAlign=middle;whiteSpace=wrap;rounded=0;" parent="1" vertex="1">
          <mxGeometry x="260" y="20" width="220" height="30" as="geometry" />
        </mxCell>
        <mxCell id="yXNOp4gTqFDvDLP4UkSq-21" value="&lt;&lt;entity&gt;&gt;&#xa;UserBasic" style="swimlane;fontStyle=1;align=center;verticalAlign=top;childLayout=stackLayout;horizontal=1;startSize=40;horizontalStack=0;resizeParent=1;resizeParentMax=0;resizeLast=0;collapsible=1;marginBottom=0;" parent="1" vertex="1">
          <mxGeometry x="340" y="544" width="160" height="134" as="geometry" />
        </mxCell>
        <mxCell id="yXNOp4gTqFDvDLP4UkSq-26" value="-favoriteFood: String&#xa;-typeOfDiet: String&#xa;-imgPath: String" style="text;strokeColor=none;fillColor=none;align=left;verticalAlign=top;spacingLeft=4;spacingRight=4;overflow=hidden;rotatable=0;points=[[0,0.5],[1,0.5]];portConstraint=eastwest;" parent="yXNOp4gTqFDvDLP4UkSq-21" vertex="1">
          <mxGeometry y="40" width="160" height="60" as="geometry" />
        </mxCell>
        <mxCell id="yXNOp4gTqFDvDLP4UkSq-23" value="" style="line;strokeWidth=1;fillColor=none;align=left;verticalAlign=middle;spacingTop=-1;spacingLeft=3;spacingRight=3;rotatable=0;labelPosition=right;points=[];portConstraint=eastwest;strokeColor=inherit;" parent="yXNOp4gTqFDvDLP4UkSq-21" vertex="1">
          <mxGeometry y="100" width="160" height="8" as="geometry" />
        </mxCell>
        <mxCell id="yXNOp4gTqFDvDLP4UkSq-24" value="+ method(type): type" style="text;strokeColor=none;fillColor=none;align=left;verticalAlign=top;spacingLeft=4;spacingRight=4;overflow=hidden;rotatable=0;points=[[0,0.5],[1,0.5]];portConstraint=eastwest;" parent="yXNOp4gTqFDvDLP4UkSq-21" vertex="1">
          <mxGeometry y="108" width="160" height="26" as="geometry" />
        </mxCell>
        <mxCell id="yXNOp4gTqFDvDLP4UkSq-25" value="&lt;&lt;entity&gt;&gt;&#xa;Chef" style="swimlane;fontStyle=1;align=center;verticalAlign=top;childLayout=stackLayout;horizontal=1;startSize=40;horizontalStack=0;resizeParent=1;resizeParentMax=0;resizeLast=0;collapsible=1;marginBottom=0;" parent="1" vertex="1">
          <mxGeometry x="560" y="540" width="160" height="164" as="geometry" />
        </mxCell>
        <mxCell id="yXNOp4gTqFDvDLP4UkSq-22" value="-typeOfCusine: String&#xa;-workPlace: String&#xa;-email: String&#xa;-number: String&#xa;-location: String&#xa;-imgPath: String" style="text;strokeColor=none;fillColor=none;align=left;verticalAlign=top;spacingLeft=4;spacingRight=4;overflow=hidden;rotatable=0;points=[[0,0.5],[1,0.5]];portConstraint=eastwest;" parent="yXNOp4gTqFDvDLP4UkSq-25" vertex="1">
          <mxGeometry y="40" width="160" height="90" as="geometry" />
        </mxCell>
        <mxCell id="yXNOp4gTqFDvDLP4UkSq-27" value="" style="line;strokeWidth=1;fillColor=none;align=left;verticalAlign=middle;spacingTop=-1;spacingLeft=3;spacingRight=3;rotatable=0;labelPosition=right;points=[];portConstraint=eastwest;strokeColor=inherit;" parent="yXNOp4gTqFDvDLP4UkSq-25" vertex="1">
          <mxGeometry y="130" width="160" height="8" as="geometry" />
        </mxCell>
        <mxCell id="yXNOp4gTqFDvDLP4UkSq-28" value="+ method(type): type" style="text;strokeColor=none;fillColor=none;align=left;verticalAlign=top;spacingLeft=4;spacingRight=4;overflow=hidden;rotatable=0;points=[[0,0.5],[1,0.5]];portConstraint=eastwest;" parent="yXNOp4gTqFDvDLP4UkSq-25" vertex="1">
          <mxGeometry y="138" width="160" height="26" as="geometry" />
        </mxCell>
        <mxCell id="yXNOp4gTqFDvDLP4UkSq-29" value="&lt;&lt;bean&gt;&gt;&#xa;LoginBean" style="swimlane;fontStyle=1;align=center;verticalAlign=top;childLayout=stackLayout;horizontal=1;startSize=40;horizontalStack=0;resizeParent=1;resizeParentMax=0;resizeLast=0;collapsible=1;marginBottom=0;" parent="1" vertex="1">
          <mxGeometry x="300" y="125" width="160" height="98" as="geometry" />
        </mxCell>
        <mxCell id="yXNOp4gTqFDvDLP4UkSq-30" value="- password: String&#xa;- username: String&#xa;- accountType: int" style="text;strokeColor=none;fillColor=none;align=left;verticalAlign=top;spacingLeft=4;spacingRight=4;overflow=hidden;rotatable=0;points=[[0,0.5],[1,0.5]];portConstraint=eastwest;" parent="yXNOp4gTqFDvDLP4UkSq-29" vertex="1">
          <mxGeometry y="40" width="160" height="50" as="geometry" />
        </mxCell>
        <mxCell id="yXNOp4gTqFDvDLP4UkSq-31" value="" style="line;strokeWidth=1;fillColor=none;align=left;verticalAlign=middle;spacingTop=-1;spacingLeft=3;spacingRight=3;rotatable=0;labelPosition=right;points=[];portConstraint=eastwest;strokeColor=inherit;" parent="yXNOp4gTqFDvDLP4UkSq-29" vertex="1">
          <mxGeometry y="90" width="160" height="8" as="geometry" />
        </mxCell>
        <mxCell id="aHRAQqbGBVoQdefS3aLH-1" value="" style="endArrow=open;html=1;rounded=0;exitX=1;exitY=0.5;exitDx=0;exitDy=0;entryX=0;entryY=0.5;entryDx=0;entryDy=0;endFill=0;" parent="1" target="yXNOp4gTqFDvDLP4UkSq-11" edge="1">
          <mxGeometry width="50" height="50" relative="1" as="geometry">
            <mxPoint x="280" y="442.9999999999999" as="sourcePoint" />
            <mxPoint x="280" y="470" as="targetPoint" />
            <Array as="points" />
          </mxGeometry>
        </mxCell>
        <mxCell id="aHRAQqbGBVoQdefS3aLH-4" value="" style="endArrow=open;html=1;rounded=0;exitX=0.5;exitY=1;exitDx=0;exitDy=0;exitPerimeter=0;entryX=0.5;entryY=0;entryDx=0;entryDy=0;endFill=0;" parent="1" source="yXNOp4gTqFDvDLP4UkSq-11" target="yXNOp4gTqFDvDLP4UkSq-21" edge="1">
          <mxGeometry width="50" height="50" relative="1" as="geometry">
            <mxPoint x="310" y="550" as="sourcePoint" />
            <mxPoint x="360" y="500" as="targetPoint" />
          </mxGeometry>
        </mxCell>
        <mxCell id="aHRAQqbGBVoQdefS3aLH-7" value="" style="endArrow=open;html=1;rounded=0;exitX=0.5;exitY=0;exitDx=0;exitDy=0;endFill=0;" parent="1" source="yXNOp4gTqFDvDLP4UkSq-12" edge="1">
          <mxGeometry width="50" height="50" relative="1" as="geometry">
            <mxPoint x="430.0000000000001" y="410" as="sourcePoint" />
            <mxPoint x="366.9273743016761" y="224" as="targetPoint" />
          </mxGeometry>
        </mxCell>
        <mxCell id="aHRAQqbGBVoQdefS3aLH-9" value="" style="endArrow=open;html=1;rounded=0;exitX=0.5;exitY=0;exitDx=0;exitDy=0;endFill=0;entryX=0.479;entryY=0.974;entryDx=0;entryDy=0;entryPerimeter=0;" parent="1" source="yXNOp4gTqFDvDLP4UkSq-8" edge="1">
          <mxGeometry width="50" height="50" relative="1" as="geometry">
            <mxPoint x="430.0000000000001" y="310" as="sourcePoint" />
            <mxPoint x="376.6399999999999" y="223.32399999999996" as="targetPoint" />
          </mxGeometry>
        </mxCell>
        <mxCell id="T3jDJ_TETCn0RF5peB-f-5" value="&lt;&lt;entity&gt;&gt;&#xa;Generic User" style="swimlane;fontStyle=1;align=center;verticalAlign=top;childLayout=stackLayout;horizontal=1;startSize=40;horizontalStack=0;resizeParent=1;resizeParentMax=0;resizeLast=0;collapsible=1;marginBottom=0;" vertex="1" parent="1">
          <mxGeometry x="460" y="780" width="160" height="88" as="geometry" />
        </mxCell>
        <mxCell id="T3jDJ_TETCn0RF5peB-f-6" value="-username: String&#xa;-profileType: int" style="text;strokeColor=none;fillColor=none;align=left;verticalAlign=top;spacingLeft=4;spacingRight=4;overflow=hidden;rotatable=0;points=[[0,0.5],[1,0.5]];portConstraint=eastwest;" vertex="1" parent="T3jDJ_TETCn0RF5peB-f-5">
          <mxGeometry y="40" width="160" height="40" as="geometry" />
        </mxCell>
        <mxCell id="T3jDJ_TETCn0RF5peB-f-7" value="" style="line;strokeWidth=1;fillColor=none;align=left;verticalAlign=middle;spacingTop=-1;spacingLeft=3;spacingRight=3;rotatable=0;labelPosition=right;points=[];portConstraint=eastwest;strokeColor=inherit;" vertex="1" parent="T3jDJ_TETCn0RF5peB-f-5">
          <mxGeometry y="80" width="160" height="8" as="geometry" />
        </mxCell>
        <mxCell id="T3jDJ_TETCn0RF5peB-f-9" value="" style="endArrow=block;endSize=16;endFill=0;html=1;rounded=0;exitX=0.125;exitY=1.023;exitDx=0;exitDy=0;entryX=0.75;entryY=0;entryDx=0;entryDy=0;exitPerimeter=0;" edge="1" parent="1" source="yXNOp4gTqFDvDLP4UkSq-28" target="T3jDJ_TETCn0RF5peB-f-5">
          <mxGeometry width="160" relative="1" as="geometry">
            <mxPoint x="570" y="490" as="sourcePoint" />
            <mxPoint x="730" y="490" as="targetPoint" />
          </mxGeometry>
        </mxCell>
        <mxCell id="T3jDJ_TETCn0RF5peB-f-10" value="" style="endArrow=block;endSize=16;endFill=0;html=1;rounded=0;exitX=0.874;exitY=0.996;exitDx=0;exitDy=0;exitPerimeter=0;entryX=0.123;entryY=0.006;entryDx=0;entryDy=0;entryPerimeter=0;" edge="1" parent="1" source="yXNOp4gTqFDvDLP4UkSq-24" target="T3jDJ_TETCn0RF5peB-f-5">
          <mxGeometry width="160" relative="1" as="geometry">
            <mxPoint x="480.32000000000005" y="644.004" as="sourcePoint" />
            <mxPoint x="479.9999999999999" y="729.2099999999999" as="targetPoint" />
          </mxGeometry>
        </mxCell>
        <mxCell id="T3jDJ_TETCn0RF5peB-f-11" value="" style="endArrow=open;html=1;rounded=0;exitX=0.498;exitY=0.999;exitDx=0;exitDy=0;exitPerimeter=0;entryX=0.5;entryY=0;entryDx=0;entryDy=0;endFill=0;" edge="1" parent="1" source="yXNOp4gTqFDvDLP4UkSq-11" target="yXNOp4gTqFDvDLP4UkSq-25">
          <mxGeometry width="50" height="50" relative="1" as="geometry">
            <mxPoint x="430" y="410" as="sourcePoint" />
            <mxPoint x="430" y="554" as="targetPoint" />
          </mxGeometry>
        </mxCell>
      </root>
    </mxGraphModel>
  </diagram>
</mxfile>
